<svg xmlns="http://www.w3.org/2000/svg" width="40" viewBox="0 0 30 30" height="40" version="1.0"><path d="m5.614 13.837-3.25 1.297 3.25 1.297v1.172l-4.328-1.797v-1.36l4.328-1.796zM6.618 11.462h3.219c.77 0 1.379.156 1.828.469.457.305.687.715.687 1.234 0 .368-.105.684-.312.953-.211.274-.496.454-.86.547.426.094.766.297 1.016.61.258.312.39.687.39 1.125 0 .574-.241 1.03-.718 1.375-.469.343-1.105.515-1.906.515H6.618zm1.719 1.328v1.407h1.406c.25 0 .445-.063.594-.188.156-.125.234-.3.234-.531a.61.61 0 0 0-.234-.5c-.149-.125-.344-.188-.594-.188zm0 2.657v1.515h1.406c.32 0 .578-.066.766-.203a.692.692 0 0 0 .28-.578.605.605 0 0 0-.28-.531c-.188-.133-.446-.203-.766-.203zM15.325 16.837h2.89v1.453H13.59v-6.828h1.735zM21.688 19.368h-1.406l3.14-8.984h1.422zM24.38 16.353l3.25-1.297-3.25-1.297v-1.187l4.344 1.812v1.36L24.38 17.54zm0 0" fill="#f5f5f5"/></svg>